<svg xmlns="http://www.w3.org/2000/svg" xmlns:xlink="http://www.w3.org/1999/xlink" preserveAspectRatio="xMidYMid" width="225" height="213" viewBox="0 0 225 213">
	<g>
  	<path d="M81.000,205.000 L88.000,191.000 L81.000,174.000 L52.000,148.000 L49.000,142.000 L25.000,125.000 L22.000,128.000 L30.000,155.000 L53.000,177.000 L76.000,194.000 L81.000,205.000 Z" class="cls-1"/>
		<animate attributeName="fill" values="#ffcdf1;#d6c1ff;#b6e0ff;#d9fff1;#fffbcb;#ffd0b6;#ffdce2;#ffcdf1" dur="1s" repeatCount="indefinite" />
	</g>
	<g>
	  <path d="M65.000,139.000 L73.000,147.000 L90.000,153.000 L114.000,162.000 L151.000,177.000 L162.000,179.000 L176.000,177.000 L169.000,185.000 L151.000,190.000 L134.000,188.000 L90.000,177.000 L58.000,152.000 L50.000,143.000 L65.000,139.000 Z" class="cls-2"/>
		<animate attributeName="fill" values="#ffdce2;#ffcdf1;#d6c1ff;#b6e0ff;#d9fff1;#fffbcb;#ffd0b6;#ffdce2" dur="1s" repeatCount="indefinite" />
	</g>
	<g>
	  <path d="M65.000,141.000 L81.000,130.000 L92.000,136.000 L104.000,137.000 L110.000,139.000 L121.000,140.000 L151.000,136.000 L162.000,132.000 L171.000,134.000 L181.000,134.000 L189.000,134.000 L169.000,151.000 L147.000,158.000 L109.000,159.000 L77.000,148.000 L65.000,141.000 Z" class="cls-3"/>
		<animate attributeName="fill" values="#ffd0b6;#ffdce2;#ffcdf1;#d6c1ff;#b6e0ff;#d9fff1;#fffbcb;#ffd0b6" dur="1s" repeatCount="indefinite" />
	</g>
	<g>
	  <path d="M81.000,130.000 L100.000,123.000 L111.000,124.000 L123.000,118.000 L124.000,113.000 L137.000,115.000 L146.000,115.000 L153.000,115.000 L189.000,87.000 L208.000,82.000 L206.000,88.000 L195.000,94.000 L186.000,106.000 L175.000,120.000 L160.000,133.000 L142.000,139.000 L118.000,140.000 L97.000,136.000 L85.000,134.000 L81.000,130.000 Z" class="cls-4"/>
		<animate attributeName="fill" values="#fffbcb;#ffd0b6;#ffdce2;#ffcdf1;#d6c1ff;#b6e0ff;#d9fff1;#fffbcb" dur="1s" repeatCount="indefinite" />
	</g>
	<g>
	  <path d="M115.000,96.000 L125.000,112.000 L141.000,115.000 L147.000,115.000 L155.000,115.000 L174.000,100.000 L184.000,90.000 L175.000,88.000 L167.000,93.000 L158.000,100.000 L146.000,100.000 L132.000,96.000 L122.000,93.000 L118.000,93.000 L115.000,96.000 Z" class="cls-5"/>
		<animate attributeName="fill" values="#d9fff1;#fffbcb;#ffd0b6;#ffdce2;#ffcdf1;#d6c1ff;#b6e0ff;#d9fff1" dur="1s" repeatCount="indefinite" />
	</g>
	<g>
	  <path d="M94.000,73.000 L117.000,73.000 L143.000,88.000 L158.000,90.000 L163.000,88.000 L165.000,87.000 L166.000,87.000 L167.000,88.000 L167.000,89.000 L166.000,91.000 L158.000,99.000 L152.000,100.000 L145.000,100.000 L124.000,93.000 L120.000,93.000 L113.000,94.000 L79.000,78.000 L94.000,73.000 Z" class="cls-6"/>
		<animate attributeName="fill" values="#b6e0ff;#d9fff1;#fffbcb;#ffd0b6;#ffdce2;#ffcdf1;#d6c1ff;#b6e0ff" dur="1s" repeatCount="indefinite" />
	</g>
	<g>
	  <path d="M29.000,68.000 L46.000,55.000 L67.000,53.000 L85.000,56.000 L95.000,60.000 L110.000,68.000 L103.000,71.000 L92.000,72.000 L86.000,74.000 L80.000,77.000 L62.000,76.000 L29.000,68.000 Z" class="cls-7"/>
		<animate attributeName="fill" values="#d6c1ff;#b6e0ff;#d9fff1;#fffbcb;#ffd0b6;#ffdce2;#ffcdf1;#d6c1ff" dur="1s" repeatCount="indefinite" />
	</g>
  <g>
	<g>
		<path d="M79.1,36.1c4.5,3.4,4.5,8.2,3.2,12.9c-0.7,2.8-0.3,4.1,2.6,5c7.5,2.3,14.5,5.9,21.4,9.5c9.5,4.9,19.6,6.3,30,6.1
			c7.4-0.2,12.9-4,14.8-9.8c2-6.1-1.8-11.1-8.3-10.7c-2.3,0.2-4.3,0.8-5.2,3.2c-0.5,1.2-0.3,2.3,0.6,3.3c1.8,1.9,3.7,1.2,5.8-0.9
			c0.1,3.8-1.8,4.4-3.9,4.3c-2.8,0-4.7-1.5-5.4-4.3c-0.8-3.4,1.6-8.2,5.1-9.3c4.6-1.5,9.3-1.5,13.1,2.1c3.8,3.6,5.2,8,3.5,13.2
			c-2.3,7.1-7.4,11.3-14.3,13.5c-4.2,1.3-8.6,2.1-14,3.4c10.3,6.2,20,11.5,31.6,11.1c1.3,0,2.6-0.6,3.8-1.2c2.8-1.3,4.3-3.6,2.2-6.4
			c-1.9-2.6-4.7-2.9-7.5-0.9c-0.6,0.5-0.6,2.4-2,1.1c-1.2-1-0.3-2.2,0.5-3c3-3.4,10.7-1.6,11.7,3.3c1.1,5.1,2.7,5.6,8.2,5.8
			c7.1,0.2,12.1-2.3,17.8-5.3c10.9-5.6,22.7-2,31.2,8.8c0,3.3,0,6.7,0,10c-3.1,6.7-7.7,11.1-15.8,10.5c-2.7-0.2-4.6-1.2-5.1-3.9
			c-0.5-2.7,0.5-4.8,4.2-6c-0.9,2.3-3,4.2-0.9,5.7c2.1,1.5,4.5,0.7,6.6-0.5c1.5-0.9,2.7-2.4,4.1-3.6c2.5-2.2,3.8-4.9,2.3-8
			c-1.4-3-4.3-3.8-7.5-4c-8.6-0.5-15,3.5-20.1,10c-7.8,9.9-12.4,22.1-23.3,30.4c6,1.4,11.1,0.6,16.2,0c5.3-0.6,7.6-4.3,8.6-9.1
			c0.4-2.2,0.5-4.6-1.6-5.9c-2.7-1.7-2.8,2-4.5,3.1c-0.9-3.8,0-6.4,3.4-7.6c3.5-1.2,5.6,0.9,7.2,3.7c3.2,5.6,1.3,13.3-5.1,19.3
			c-4.6,4.3-9.4,8.5-14.3,12.5c-9.5,7.7-20.3,12.4-32.6,14c-8.4,1-16.8,0.4-25.6,1.1c10.8,7.6,34.3,15.1,46.4,15.1
			c2.4,0,4.7-0.3,6.7-1.6c2.7-1.7,3.3-3.7,0.2-5.7c-3-2-6.2-2.9-10.4-0.3c3.7-5.5,9.4-6.2,14.4-2.5c3.8,2.8,4.7,7.7,1.2,11.3
			c-7.5,7.8-16,14.7-27.3,14.9c-17,0.3-33.9-1.1-50.4-5.8c-4.6-1.3-8.9-3.5-13.8-5.5c2.5,12.4-0.7,22.7-9.2,31.4c-2,0-4,0-6,0
			c-1.2-1.3-3.3-1.7-3.8-4c1-1.1,2.1-0.1,3.1-0.1c4.1,0.1,6-2.6,4.6-6.5c-1.1-3.1-3.3-5.4-5.9-7.3c-6.3-4.6-12.5-9.4-19.1-13.7
			c-14.2-9.4-24.8-21.3-30.3-37.7c-2.9-8.8-0.8-17.5-0.8-26.2c0-1.3,1-2.2,2.3-2.2c1.8-0.1,2.5,1.3,3.1,2.7c3.2,7.2,8,13,14.7,17.2
			c7.6,4.8,18.6,3.9,25.6-1.9c7.4-6.1,14.6-12.9,24.8-14c1.8-0.2,2.4-1.3,2.5-3.1c0.1-1.4,0.6-2.9,1.2-4.3c0.6-1.4,1.6-2.8,3.3-2.6
			c1.7,0.2,1.4,2,1.8,3.2c0.9,3.4,1.8,7,6,7.7c4.6,0.8,9.1,0.2,12.6-3.2c3.3-3.1,2.8-7.8-0.3-11.6c-12.4-15.2-29.5-20.9-47.9-24.2
			C58.3,80,45.5,76,32.2,74.9c-3.6-0.3-6.4-2.6-9-5.1c-2.6-2.6-5.2-5.2-8.4-7.1c-1.5-0.8-3.2-1.4-4.7-0.4c-1.5,1-0.7,2.7-0.7,4.2
			c0.3,8.4,4.8,15.9,5.3,24.3c0.2,2.7,2.3,6.5-1,7.5c-2.8,0.8-4.3-3.1-5.4-5.6c-3.6-8.4-7.2-16.7-6.8-26.3C2,57,8.1,52.4,17,55.4
			c4.2,1.5,7.4,4.4,10.4,7.5c2,2,3.3,2.1,5.3,0.2C38,58,44.5,54.9,51.4,53c2.7-0.7,3.8-1.7,2.6-4.5c-0.3-0.9-0.5-2.4,0-2.9
			c3.6-3.8,3.7-9.1,6-13.4c1.3-2.3,3.5-3.8,3.1-7.1C62.9,23,65,21.7,67,20.9c2.1-0.9,4.3-1.8,6.5-2.6c2.7-0.9,3.7-2.6,2.5-5.3
			c3.5,1.4,2.8,3.7,1,5.9c-2,2.5-4.9,3.2-8,3.6c-2.2,0.3-4.2,1.5-3.6,3.9c0.7,2.7,2.7,0.4,4.2,0.4c1.3,0,2.6-0.7,3.9-0.9
			c3.5-0.4,6.2-1.5,5.1-6.6c2.5,1.6,2.9,3,2.3,4.9c-1.3,4.1-6.1,7.3-10.5,6.9c-6.6-0.6-7.7,0.2-9.8,7.2c6.2,0.8,18.1-4.9,21.2-10.3
			C82.7,31.6,80.9,33.8,79.1,36.1c-4.1,4.1-8.9,6-14.8,5.4c-3-0.3-7.7,5.2-7,8.1c0.9,3.6,3.8,0.7,5.8,1.2c1.1,0.2,2.3-0.2,3.5,0
			c5.4,0.8,8.2-2.3,10.5-6.5C78.3,41.6,78.8,38.9,79.1,36.1z M185.1,137.8c-7.3-0.5-13.3-0.3-19.2-1.5c-1.7-0.3-3.2,0.3-4.8,0.9
			c-23.9,9-48.1,7.9-72,1.1c-6.2-1.8-10.8-1.5-15.5,2.3c-1,0.8-2.9,1.3-2.5,2.7c0.3,1,1.9,2.1,3,2.3c8.8,1.3,16.6,5.8,25,8.3
			c13.3,4.1,26.9,3.5,40.6,3.2C157.1,156.8,170.6,148.1,185.1,137.8z M56.1,146.8c3.8,3.3,7.3,6.3,10.8,9.3
			c12.8,11.3,26,21.7,43.4,25.2c15.1,3,29.9,7.7,45.6,6.8c5.3-0.3,10.1-2.3,13.3-5.9c-11.2,1.3-21.5-1.6-31.6-5.8
			c-15.6-6.5-30.7-14.2-46.8-19.6c-6.1-2.1-12.4-4-17.8-7.6C67.8,145.7,62.5,144.4,56.1,146.8z M201.6,87.4
			c-3.6,0.2-5.6,1.6-7.7,2.8c-8.6,4.8-15.9,11.5-23.2,18.1c-7.9,7.2-16.9,11.7-28,10.7c-3.5-0.3-7-0.7-10.4-1.4
			c-2.8-0.6-4.3,0-5.2,2.8c-1.8,5.4-6.2,8.2-11.4,9.5c-3.4,0.9-6.9,0.3-10.4-0.4c-5.8-1.1-11.5-1.2-17.3,3.4
			c5.1,0.8,9.4,0.9,13.4,2.2c10.6,3.4,21.4,2.9,32.2,2.6c20.6-0.6,36.7-9.1,48.1-26.6C187.2,102.7,192.5,94,201.6,87.4z M26.1,130.5
			c3.7,17.5,14.7,34.4,27.7,43.5c10.2,7.1,21,13.4,29.9,23.8c0-12.4-4.6-21.5-13-28.6c-7.7-6.6-15.2-13.3-21.3-21.5
			c-0.7-1-1.4-1.8-2.6-2.2C38.5,143.2,32,138.2,26.1,130.5z M37.3,67.5c9.7,1.4,18.4,3.2,27,5.5c7.5,2.1,14.9,3.8,22.5-0.6
			c3.4-1.9,8-1.8,12.1-2.7c1.3-0.3,3,0.4,4-1.2C79.1,54.9,56.7,51.2,37.3,67.5z M164.8,91.5c-3.3,0.9-6,1.7-8.8,1.8
			c-11,0.3-20.4-4.5-28.4-10.8c-13.4-10.5-27-7.9-41.2-3.7C96,83,106,86.1,114.7,92.3c0.6,0.4,1.7,0.5,2.3,0.3
			c4.5-1.7,8.5,0.1,12.6,1.4c7.6,2.4,14.9,6,23.1,5.8C158.1,99.5,162.2,97.4,164.8,91.5z M120.8,96.8c3.5,4.6,7.5,8.7,8.4,14.5
			c0.2,1.1,1.3,1.4,2.4,1.4c7.1,0.4,14.2,0.9,21.4,1c1.7,0,3.6-0.8,5.1-1.7c8.4-4.9,14.5-12.3,20.9-19.5c-5,0.8-9.6,2.4-13.2,6
			c-4.1,4.2-8.9,6.1-14.8,5.7c-7.8-0.5-14.8-3.5-21.9-6.4C126.5,96.7,124.1,95.5,120.8,96.8z"/>
		<path d="M73,1c5.7,4.5,6,5.7,3,12c-3.8,1.3-8.5,1.3-9.2,7.2C65,16.3,68.7,3.7,72,1C72.3,1,72.7,1,73,1z M69.2,11.9
			c3.1-0.4,5.7-0.1,6.4-3.4c0.2-0.8,0.3-2-0.8-2C71.9,6.6,70.5,8.6,69.2,11.9z"/>
		<path d="M53.5,97.6c-1.6,0.5-2.8-0.9-4.1-1.1c-3.1-0.6-6.7-1.7-8.7,1.4c-1.7,2.6-2.9,2.2-4.5,0.5c-2-2-3.6-4.4-2.3-7.5
			c1.7,1.6,3.7-3.3,5.4,0.3c0.8,1.6,2,0,3-0.2C47.9,89.8,51.3,91.7,53.5,97.6z"/>
		<path d="M108.7,101.7c5.5,1.9,6,2.8,4.9,8.7C111.9,107.4,110.6,105,108.7,101.7z"/>
	</g>
</g>
</svg>
